 <svg  version="1.0" xmlns="http://www.w3.org/2000/svg"  width="900.000000pt" height="900.000000pt" viewBox="0 0 900.000000 900.000000"  preserveAspectRatio="xMidYMid meet">  <g transform="translate(0.000000,900.000000) scale(0.100000,-0.100000)" fill="#ffffff" stroke="none"> <path d="M4640 7000 c0 -8 -204 -149 -245 -170 -5 -3 -57 -36 -115 -75 -58 -38 -109 -72 -115 -75 -5 -3 -49 -31 -97 -62 -49 -32 -127 -84 -175 -115 -49 -32 -91 -60 -96 -61 -4 -2 -57 -37 -118 -78 -61 -41 -113 -74 -114 -74 -2 0 -33 -20 -69 -45 -37 -25 -68 -45 -70 -45 -2 0 -54 -34 -116 -75 -62 -41 -113 -75 -115 -75 -2 0 -53 -34 -115 -75 -62 -41 -114 -75 -115 -75 -2 0 -32 -20 -67 -43 -35 -24 -68 -46 -73 -48 -6 -2 -57 -35 -115 -73 -58 -38 -159 -104 -225 -147 -190 -123 -196 -129 -193 -152 6 -42 28 -36 147 38 17 11 122 80 276 181 50 32 95 61 100 64 6 3 29 18 52 33 23 16 46 26 51 23 14 -8 12 -428 -1 -445 -10 -12 -192 -136 -222 -151 -5 -3 -37 -23 -70 -45 -33 -22 -64 -42 -70 -45 -10 -5 -85 -54 -320 -209 -71 -47 -134 -88 -140 -90 -23 -9 -85 -64 -85 -74 0 -7 8 -17 19 -24 20 -13 46 1 191 97 41 28 81 53 89 57 7 3 63 39 123 79 61 41 111 74 113 74 2 0 53 34 115 75 62 41 114 75 117 75 2 0 19 11 36 24 51 38 99 59 106 47 4 -5 6 -107 5 -226 -1 -211 -2 -216 -24 -240 -13 -14 -27 -25 -30 -25 -4 0 -65 -39 -136 -86 -133 -88 -222 -145 -239 -154 -5 -3 -57 -36 -115 -75 -58 -38 -109 -72 -115 -75 -5 -3 -57 -36 -115 -75 -58 -38 -109 -72 -115 -75 -5 -3 -48 -30 -95 -61 -47 -31 -124 -81 -171 -112 -95 -61 -109 -79 -77 -101 23 -17 24 -16 126 52 35 23 65 42 67 42 1 0 53 34 115 75 62 41 114 75 115 75 2 0 32 20 67 43 35 24 68 46 73 48 10 4 70 43 320 208 72 47 135 88 140 91 6 3 50 31 98 63 48 32 93 57 100 54 15 -5 12 -420 -4 -445 -9 -15 -145 -109 -174 -121 -5 -2 -38 -24 -73 -48 -35 -23 -65 -43 -67 -43 -1 0 -53 -33 -114 -74 -61 -41 -114 -76 -118 -78 -5 -1 -48 -30 -98 -62 -49 -33 -121 -80 -160 -104 -38 -25 -128 -84 -200 -131 -71 -47 -134 -88 -139 -90 -4 -2 -37 -23 -72 -47 -35 -24 -66 -44 -68 -44 -2 0 -54 -34 -116 -75 -62 -41 -113 -75 -115 -75 -1 0 -40 -25 -85 -55 -52 -34 -93 -55 -111 -55 -37 0 -43 -11 -114 -215 -13 -38 -32 -90 -41 -115 -23 -63 -81 -225 -101 -283 -19 -55 -12 -67 42 -67 43 0 53 10 74 69 10 29 25 57 32 62 8 5 71 9 141 9 l128 0 18 -37 c11 -21 22 -50 25 -64 7 -28 30 -39 80 -39 50 0 46 32 -23 210 -12 30 -25 69 -30 85 -5 17 -18 55 -30 85 -30 78 -81 221 -87 246 -4 16 4 28 34 48 44 32 265 176 269 176 1 0 52 34 114 75 62 41 114 75 115 75 2 0 32 20 67 43 35 24 68 46 73 48 6 2 51 31 100 63 50 32 142 93 205 134 63 41 155 101 203 134 49 32 90 58 92 58 2 0 43 26 92 58 204 136 262 172 275 172 12 0 104 -57 258 -160 30 -20 63 -39 73 -43 9 -3 17 -16 17 -27 0 -11 -8 -24 -17 -28 -18 -7 -60 -34 -328 -211 -71 -47 -134 -88 -139 -90 -4 -2 -37 -23 -72 -47 -35 -24 -66 -44 -68 -44 -3 0 -34 -20 -70 -45 -37 -25 -68 -45 -70 -45 -8 0 -262 -173 -268 -183 -9 -16 10 -47 29 -47 9 0 31 11 49 25 18 14 35 25 38 25 3 0 35 20 72 45 36 25 67 45 70 45 2 0 33 20 70 45 36 25 67 45 69 45 1 0 53 33 114 74 61 41 114 76 118 78 5 1 49 30 98 62 50 33 128 84 175 115 47 31 89 58 93 59 4 2 31 19 58 38 28 19 56 34 61 34 11 0 82 -44 165 -101 23 -16 44 -29 48 -29 4 0 24 -12 44 -27 20 -16 45 -33 56 -39 37 -21 28 -39 -42 -84 -37 -24 -113 -73 -168 -109 -55 -36 -105 -68 -110 -71 -6 -3 -32 -20 -58 -38 -36 -25 -47 -39 -45 -55 4 -27 42 -35 66 -14 9 8 22 16 27 18 6 2 51 31 100 63 50 33 140 92 202 133 107 70 161 90 177 64 8 -13 169 -120 206 -137 8 -4 31 -19 50 -33 61 -45 97 -61 138 -61 82 0 74 6 -243 211 -72 46 -138 89 -147 94 -9 6 -49 33 -90 60 -40 28 -80 53 -88 58 -8 4 -27 15 -41 25 -15 9 -93 61 -175 115 -82 55 -168 112 -192 128 -23 16 -45 29 -48 29 -4 0 -23 13 -43 28 -20 15 -53 37 -74 47 -21 11 -44 30 -52 42 -14 21 -11 24 58 70 39 26 76 50 82 52 5 2 38 24 73 48 35 23 65 43 67 43 1 0 53 33 114 74 61 41 114 76 118 78 5 1 49 30 98 62 50 33 122 80 160 104 39 25 129 84 200 131 72 47 134 88 139 90 4 2 37 23 72 47 35 24 66 44 68 44 2 0 54 34 116 75 62 41 114 75 115 75 2 0 32 19 67 43 83 57 92 60 121 36 14 -10 28 -19 32 -19 4 0 24 -12 44 -27 20 -16 44 -32 53 -38 9 -5 106 -70 215 -144 109 -74 426 -287 706 -473 279 -187 507 -343 507 -348 0 -5 -44 -38 -97 -73 -205 -134 -278 -182 -288 -187 -6 -3 -42 -26 -80 -51 -83 -55 -302 -198 -400 -261 -38 -24 -110 -71 -160 -104 -49 -32 -94 -61 -100 -64 -35 -17 -155 -103 -155 -111 0 -16 106 -11 120 6 7 8 16 15 21 15 5 0 41 22 81 49 130 87 373 246 382 250 4 2 37 23 72 47 35 24 66 44 69 44 3 0 34 20 69 44 35 24 68 45 72 47 5 2 74 47 154 100 80 52 181 117 224 145 44 27 89 58 100 69 21 20 21 23 24 882 l4 861 -26 14 c-22 11 -148 94 -274 179 -23 16 -45 29 -48 29 -4 0 -23 13 -43 28 -20 16 -43 32 -51 36 -24 11 -53 29 -90 56 -37 27 -66 45 -90 56 -8 4 -31 20 -51 36 -20 15 -40 28 -44 28 -4 0 -24 13 -44 28 -20 16 -43 32 -51 36 -26 12 -184 113 -338 217 -40 27 -74 49 -76 49 -4 0 -78 48 -141 90 -35 23 -148 97 -252 164 -67 43 -123 59 -123 36z m200 -168 c47 -30 128 -83 180 -117 178 -116 388 -253 550 -357 41 -26 89 -57 105 -68 17 -11 57 -38 90 -59 33 -21 119 -77 192 -124 72 -48 135 -87 138 -87 4 0 24 -13 44 -29 20 -16 54 -38 76 -50 22 -11 55 -34 73 -51 l34 -30 -7 -438 c-3 -240 -8 -477 -10 -527 -3 -49 -5 -202 -5 -338 -1 -280 -1 -280 -71 -231 -22 16 -47 34 -57 39 -9 6 -50 33 -90 60 -41 28 -81 55 -90 60 -9 6 -33 22 -53 38 -20 15 -40 27 -44 27 -4 0 -24 14 -45 30 -21 17 -41 30 -45 30 -4 0 -24 14 -45 30 -21 17 -41 30 -45 30 -4 0 -24 14 -45 30 -21 17 -41 30 -45 30 -4 0 -24 14 -45 30 -21 17 -43 30 -48 30 -6 0 -15 6 -19 13 -4 8 -15 17 -23 20 -24 11 -146 93 -160 107 -8 8 -184 125 -195 129 -5 2 -26 16 -45 30 -19 14 -43 31 -52 36 -9 6 -49 33 -90 60 -40 28 -77 52 -83 54 -5 2 -26 17 -46 32 -20 16 -41 29 -47 29 -5 0 -24 16 -41 35 l-31 36 0 758 c0 417 3 761 7 765 11 11 45 -5 133 -62z m-205 -722 l0 -774 -93 -63 c-52 -35 -95 -63 -97 -63 -2 0 -36 -22 -77 -48 -183 -122 -284 -187 -293 -192 -5 -3 -37 -23 -70 -45 -33 -22 -64 -42 -70 -45 -5 -3 -50 -32 -100 -64 -49 -33 -148 -97 -220 -144 -71 -46 -163 -106 -203 -133 -40 -27 -74 -49 -77 -49 -2 0 -46 -28 -97 -62 -51 -34 -122 -81 -159 -105 -36 -24 -70 -43 -77 -43 -9 0 -12 176 -10 777 l3 778 85 58 c47 32 91 61 99 64 7 3 63 39 123 79 61 41 111 74 113 74 2 0 53 34 115 75 62 41 114 75 115 75 2 0 33 20 69 45 37 25 68 45 70 45 3 0 34 20 70 45 37 25 69 45 72 45 3 0 23 14 44 30 21 17 40 30 43 30 3 0 55 34 117 75 62 41 114 75 116 75 2 0 33 20 70 45 36 25 67 45 70 45 2 0 33 20 70 45 36 25 67 45 70 45 2 0 23 14 46 30 23 17 46 29 52 27 8 -3 11 -237 11 -777z m-3382 -3187 c3 -16 21 -73 41 -128 19 -55 36 -106 36 -112 0 -10 -27 -13 -100 -13 -97 0 -100 1 -100 23 0 12 12 54 26 92 14 39 29 83 34 99 13 39 39 78 49 71 5 -2 11 -17 14 -32z"/> <path d="M5215 6066 c-42 -18 -65 -57 -65 -109 0 -45 18 -70 67 -96 56 -29 140 11 144 69 6 73 0 89 -43 120 -46 33 -59 35 -103 16z"/> <path d="M5814 5751 c-22 -10 -64 -69 -64 -91 0 -28 34 -81 65 -100 45 -28 79 -25 117 9 29 26 33 35 32 81 0 41 -6 56 -26 76 -27 28 -89 40 -124 25z"/> <path d="M5120 5511 c0 -23 16 -43 81 -102 91 -82 240 -185 309 -213 25 -10 59 -24 76 -31 30 -13 91 -18 197 -16 34 1 53 7 68 22 l21 21 -20 21 c-18 18 -25 19 -47 9 -37 -17 -146 -15 -169 3 -11 8 -28 15 -38 15 -11 0 -45 13 -76 28 -114 57 -194 115 -296 214 -69 67 -106 77 -106 29z"/> <path d="M5226 4595 c-88 -58 -160 -105 -162 -105 -1 0 -32 -20 -68 -45 -37 -25 -68 -45 -70 -45 -3 0 -34 -20 -70 -45 -37 -25 -68 -45 -70 -45 -2 0 -75 -47 -161 -105 -87 -58 -159 -105 -161 -105 -2 0 -33 -20 -70 -45 -36 -25 -67 -45 -70 -45 -2 0 -33 -20 -70 -45 -36 -25 -67 -45 -69 -45 -1 0 -53 -34 -115 -75 -62 -41 -115 -75 -119 -75 -19 -1 -63 -50 -59 -66 7 -40 49 -27 167 51 63 41 116 75 118 75 1 0 32 20 67 44 35 24 68 45 72 47 5 2 68 43 139 90 72 47 162 106 200 131 39 24 111 71 160 104 50 32 95 61 100 64 6 3 57 37 115 75 58 39 110 72 115 75 6 3 48 30 95 61 47 31 104 68 128 83 58 36 83 63 76 81 -13 34 -60 14 -218 -90z"/> <path d="M3649 3116 c-87 -21 -179 -96 -221 -181 -8 -16 -20 -58 -27 -92 -28 -145 35 -284 162 -360 62 -37 63 -37 177 -37 135 -1 171 13 252 96 64 66 63 92 -5 96 -42 3 -51 0 -80 -29 -57 -58 -85 -69 -170 -69 -88 0 -132 20 -178 81 -70 95 -63 263 14 339 52 52 84 64 168 64 82 1 115 -13 157 -65 21 -26 30 -29 81 -29 32 0 60 3 64 6 17 18 -69 120 -126 150 -81 42 -177 53 -268 30z"/> <path d="M5600 3115 c-98 -28 -160 -78 -211 -170 -31 -57 -33 -65 -33 -160 1 -120 21 -173 93 -244 80 -81 118 -95 246 -96 129 0 175 17 250 92 75 77 70 107 -17 100 -37 -3 -53 -10 -68 -30 -40 -50 -81 -67 -165 -67 -76 0 -121 16 -160 55 -55 54 -80 152 -64 242 25 139 125 208 271 188 41 -6 58 -15 96 -51 43 -42 49 -44 104 -44 68 0 72 8 28 67 -78 106 -236 157 -370 118z"/> <path d="M6980 3116 c-92 -26 -165 -84 -211 -168 -33 -61 -34 -67 -34 -168 1 -115 7 -135 73 -222 115 -153 383 -162 517 -16 66 71 95 142 95 235 0 237 -213 402 -440 339z m216 -117 c64 -39 114 -132 114 -211 0 -61 -29 -142 -64 -180 -51 -55 -91 -71 -170 -71 -117 0 -188 51 -221 159 -19 62 -19 106 0 167 25 82 80 140 149 158 52 14 154 2 192 -22z"/> <path d="M353 3109 c-18 -18 -19 -639 -1 -657 16 -16 70 -16 86 0 8 8 12 52 12 130 0 117 0 119 25 130 19 9 31 8 48 -1 21 -11 33 -28 84 -121 13 -25 33 -58 44 -75 10 -16 22 -37 25 -47 9 -26 92 -39 123 -19 16 10 11 25 -29 86 -11 17 -24 39 -30 50 -13 25 -30 53 -52 84 -27 36 -22 47 32 83 70 46 94 97 87 184 -6 76 -35 122 -100 156 -36 19 -62 22 -192 26 -114 3 -153 1 -162 -9z m272 -88 c35 -7 75 -62 75 -103 0 -36 -24 -84 -49 -98 -31 -16 -155 -24 -179 -11 -20 11 -22 19 -22 111 0 85 2 99 18 103 25 7 122 6 157 -2z"/> <path d="M1648 3114 c-5 -4 -8 -155 -8 -335 0 -289 2 -328 16 -333 24 -9 63 -7 85 5 18 9 20 20 18 129 0 65 2 124 6 129 3 7 44 11 98 11 103 0 153 17 199 66 93 99 69 231 -57 309 -25 16 -56 19 -190 23 -88 2 -163 1 -167 -4z m275 -93 c51 -12 76 -45 77 -102 0 -39 -5 -51 -32 -78 -31 -30 -35 -31 -119 -31 -61 0 -88 4 -91 13 -6 19 -1 184 7 196 7 13 105 14 158 2z"/> <path d="M2232 3108 c-9 -9 -12 -89 -12 -330 0 -309 1 -318 20 -328 12 -6 35 -10 53 -8 l32 3 0 335 0 335 -40 3 c-23 2 -46 -3 -53 -10z"/> <path d="M2488 3114 c-5 -4 -8 -155 -8 -335 l0 -329 27 -6 c14 -4 89 -4 167 -1 121 5 149 9 198 31 73 32 123 77 156 140 24 47 27 61 27 166 0 97 -3 121 -20 150 -44 78 -85 118 -152 151 -66 32 -71 33 -228 37 -88 2 -163 1 -167 -4z m333 -105 c88 -47 135 -139 127 -254 -5 -83 -36 -143 -95 -182 -40 -26 -61 -32 -130 -38 -134 -10 -123 -32 -123 244 0 131 3 241 8 246 10 10 188 -2 213 -16z"/> <path d="M4195 3107 c-3 -7 -4 -158 -3 -337 l3 -325 32 -3 c18 -2 41 2 53 8 18 10 20 20 20 138 0 70 4 133 8 140 7 9 44 12 153 10 l144 -3 3 -135 c3 -147 8 -160 63 -160 62 0 59 -19 59 340 0 362 4 340 -65 340 -18 0 -37 -6 -43 -13 -7 -8 -13 -68 -14 -143 l-3 -129 -130 -3 c-190 -4 -175 -16 -175 136 0 86 -4 132 -12 140 -16 16 -87 15 -93 -1z"/> <path d="M4885 3108 c-3 -7 -4 -159 -3 -338 l3 -325 169 -3 c177 -3 196 1 196 42 0 46 -11 50 -128 47 -139 -3 -139 -3 -132 115 l5 89 104 5 c114 5 130 14 117 63 -6 27 -7 27 -104 27 -53 0 -102 4 -109 8 -13 8 -21 162 -9 181 5 7 49 11 126 11 l120 0 6 27 c14 54 3 58 -185 61 -132 2 -173 0 -176 -10z"/> <path d="M6152 3108 c-9 -9 -12 -96 -12 -330 0 -303 1 -318 19 -328 26 -14 74 -13 89 2 8 8 12 54 12 140 0 107 2 128 15 128 8 0 15 -3 15 -8 0 -4 10 -18 23 -32 12 -14 47 -54 76 -90 30 -36 74 -84 97 -107 39 -39 47 -43 91 -43 84 0 82 12 -20 125 -170 187 -177 196 -177 220 0 13 4 25 9 27 4 2 27 26 51 53 77 91 85 100 143 167 32 37 56 72 52 78 -3 5 -29 10 -57 10 -48 0 -54 -3 -97 -48 -25 -27 -80 -90 -121 -140 -41 -50 -81 -91 -87 -91 -10 -1 -13 31 -13 127 0 142 -4 152 -60 152 -20 0 -41 -5 -48 -12z"/> <path d="M7542 3112 c-18 -12 -17 -460 0 -512 29 -84 89 -136 181 -156 146 -31 276 32 320 154 15 41 17 82 15 282 l-3 235 -40 3 c-68 4 -68 6 -66 -202 3 -257 -3 -299 -46 -342 -32 -32 -37 -34 -107 -34 -59 0 -78 4 -100 21 -49 38 -51 50 -56 309 l-5 245 -40 3 c-22 1 -46 -2 -53 -6z"/> <path d="M8182 3108 c-13 -13 -15 -37 -6 -62 5 -12 21 -16 74 -16 109 0 100 27 100 -289 0 -202 3 -280 12 -289 16 -16 70 -16 86 0 9 9 12 86 12 284 0 207 3 275 13 281 6 4 46 10 87 13 l75 5 3 34 c2 20 -2 37 -10 42 -22 14 -432 11 -446 -3z"/> </g> </svg> 